<mxfile host="app.diagrams.net" agent="Mozilla/5.0 (Windows NT 10.0; Win64; x64) AppleWebKit/537.36 (KHTML, like Gecko) Chrome/134.0.0.0 Safari/537.36 Edg/134.0.0.0" version="26.1.3">
  <diagram name="第 1 页" id="X6jaIDZ_PmC0EjfXDcqG">
    <mxGraphModel dx="1426" dy="-3921" grid="1" gridSize="10" guides="1" tooltips="1" connect="1" arrows="1" fold="1" page="1" pageScale="1" pageWidth="827" pageHeight="1169" math="0" shadow="0">
      <root>
        <mxCell id="0" />
        <mxCell id="1" parent="0" />
        <mxCell id="cXqnm6vmQuO6GC_OFDGB-1" value="FF" style="rounded=0;whiteSpace=wrap;html=1;fillColor=#cdeb8b;strokeColor=#36393d;" vertex="1" parent="1">
          <mxGeometry x="83" y="5180" width="23" height="30" as="geometry" />
        </mxCell>
        <mxCell id="cXqnm6vmQuO6GC_OFDGB-2" value="FF" style="rounded=0;whiteSpace=wrap;html=1;fillColor=#cdeb8b;strokeColor=#36393d;" vertex="1" parent="1">
          <mxGeometry x="106" y="5180" width="23" height="30" as="geometry" />
        </mxCell>
        <mxCell id="cXqnm6vmQuO6GC_OFDGB-3" style="edgeStyle=orthogonalEdgeStyle;rounded=0;orthogonalLoop=1;jettySize=auto;html=1;exitX=0.5;exitY=1;exitDx=0;exitDy=0;entryX=0.5;entryY=0;entryDx=0;entryDy=0;curved=1;" edge="1" parent="1" source="cXqnm6vmQuO6GC_OFDGB-4" target="cXqnm6vmQuO6GC_OFDGB-89">
          <mxGeometry relative="1" as="geometry" />
        </mxCell>
        <mxCell id="cXqnm6vmQuO6GC_OFDGB-4" value="FF" style="rounded=0;whiteSpace=wrap;html=1;fillColor=#ffff88;strokeColor=#36393d;" vertex="1" parent="1">
          <mxGeometry x="129" y="5180" width="23" height="30" as="geometry" />
        </mxCell>
        <mxCell id="cXqnm6vmQuO6GC_OFDGB-5" style="edgeStyle=orthogonalEdgeStyle;rounded=0;orthogonalLoop=1;jettySize=auto;html=1;exitX=0.5;exitY=1;exitDx=0;exitDy=0;entryX=0.5;entryY=0;entryDx=0;entryDy=0;curved=1;" edge="1" parent="1" source="cXqnm6vmQuO6GC_OFDGB-6" target="cXqnm6vmQuO6GC_OFDGB-90">
          <mxGeometry relative="1" as="geometry" />
        </mxCell>
        <mxCell id="cXqnm6vmQuO6GC_OFDGB-6" value="FF" style="rounded=0;whiteSpace=wrap;html=1;fillColor=#ffff88;strokeColor=#36393d;" vertex="1" parent="1">
          <mxGeometry x="152" y="5180" width="23" height="30" as="geometry" />
        </mxCell>
        <mxCell id="cXqnm6vmQuO6GC_OFDGB-7" style="edgeStyle=orthogonalEdgeStyle;rounded=0;orthogonalLoop=1;jettySize=auto;html=1;exitX=0.5;exitY=1;exitDx=0;exitDy=0;entryX=0.5;entryY=0;entryDx=0;entryDy=0;curved=1;" edge="1" parent="1" source="cXqnm6vmQuO6GC_OFDGB-8" target="cXqnm6vmQuO6GC_OFDGB-91">
          <mxGeometry relative="1" as="geometry" />
        </mxCell>
        <mxCell id="cXqnm6vmQuO6GC_OFDGB-8" value="FF" style="rounded=0;whiteSpace=wrap;html=1;fillColor=#ffff88;strokeColor=#36393d;" vertex="1" parent="1">
          <mxGeometry x="175" y="5180" width="23" height="30" as="geometry" />
        </mxCell>
        <mxCell id="cXqnm6vmQuO6GC_OFDGB-9" style="edgeStyle=orthogonalEdgeStyle;rounded=0;orthogonalLoop=1;jettySize=auto;html=1;exitX=0.5;exitY=1;exitDx=0;exitDy=0;entryX=0.5;entryY=0;entryDx=0;entryDy=0;curved=1;" edge="1" parent="1" source="cXqnm6vmQuO6GC_OFDGB-10" target="cXqnm6vmQuO6GC_OFDGB-92">
          <mxGeometry relative="1" as="geometry" />
        </mxCell>
        <mxCell id="cXqnm6vmQuO6GC_OFDGB-10" value="FF" style="rounded=0;whiteSpace=wrap;html=1;fillColor=#ffff88;strokeColor=#36393d;" vertex="1" parent="1">
          <mxGeometry x="198" y="5180" width="23" height="30" as="geometry" />
        </mxCell>
        <mxCell id="cXqnm6vmQuO6GC_OFDGB-11" style="edgeStyle=orthogonalEdgeStyle;rounded=0;orthogonalLoop=1;jettySize=auto;html=1;exitX=0.5;exitY=1;exitDx=0;exitDy=0;entryX=0.5;entryY=0;entryDx=0;entryDy=0;curved=1;" edge="1" parent="1" source="cXqnm6vmQuO6GC_OFDGB-12" target="cXqnm6vmQuO6GC_OFDGB-93">
          <mxGeometry relative="1" as="geometry" />
        </mxCell>
        <mxCell id="cXqnm6vmQuO6GC_OFDGB-12" value="FF" style="rounded=0;whiteSpace=wrap;html=1;fillColor=#ffff88;strokeColor=#36393d;" vertex="1" parent="1">
          <mxGeometry x="221" y="5180" width="23" height="30" as="geometry" />
        </mxCell>
        <mxCell id="cXqnm6vmQuO6GC_OFDGB-13" style="edgeStyle=orthogonalEdgeStyle;rounded=0;orthogonalLoop=1;jettySize=auto;html=1;exitX=0.5;exitY=1;exitDx=0;exitDy=0;entryX=0.5;entryY=0;entryDx=0;entryDy=0;curved=1;" edge="1" parent="1" source="cXqnm6vmQuO6GC_OFDGB-14" target="cXqnm6vmQuO6GC_OFDGB-94">
          <mxGeometry relative="1" as="geometry" />
        </mxCell>
        <mxCell id="cXqnm6vmQuO6GC_OFDGB-14" value="FF" style="rounded=0;whiteSpace=wrap;html=1;fillColor=#ffff88;strokeColor=#36393d;" vertex="1" parent="1">
          <mxGeometry x="244" y="5180" width="23" height="30" as="geometry" />
        </mxCell>
        <mxCell id="cXqnm6vmQuO6GC_OFDGB-15" style="edgeStyle=orthogonalEdgeStyle;rounded=0;orthogonalLoop=1;jettySize=auto;html=1;exitX=0.5;exitY=1;exitDx=0;exitDy=0;entryX=0.5;entryY=0;entryDx=0;entryDy=0;curved=1;" edge="1" parent="1" source="cXqnm6vmQuO6GC_OFDGB-16" target="cXqnm6vmQuO6GC_OFDGB-95">
          <mxGeometry relative="1" as="geometry" />
        </mxCell>
        <mxCell id="cXqnm6vmQuO6GC_OFDGB-16" value="FF" style="rounded=0;whiteSpace=wrap;html=1;fillColor=#ffff88;strokeColor=#36393d;" vertex="1" parent="1">
          <mxGeometry x="267" y="5180" width="23" height="30" as="geometry" />
        </mxCell>
        <mxCell id="cXqnm6vmQuO6GC_OFDGB-17" style="edgeStyle=orthogonalEdgeStyle;rounded=0;orthogonalLoop=1;jettySize=auto;html=1;exitX=0.5;exitY=1;exitDx=0;exitDy=0;entryX=0.5;entryY=0;entryDx=0;entryDy=0;curved=1;" edge="1" parent="1" source="cXqnm6vmQuO6GC_OFDGB-18" target="cXqnm6vmQuO6GC_OFDGB-96">
          <mxGeometry relative="1" as="geometry" />
        </mxCell>
        <mxCell id="cXqnm6vmQuO6GC_OFDGB-18" value="FF" style="rounded=0;whiteSpace=wrap;html=1;fillColor=#ffff88;strokeColor=#36393d;" vertex="1" parent="1">
          <mxGeometry x="290" y="5180" width="23" height="30" as="geometry" />
        </mxCell>
        <mxCell id="cXqnm6vmQuO6GC_OFDGB-19" style="edgeStyle=orthogonalEdgeStyle;rounded=0;orthogonalLoop=1;jettySize=auto;html=1;exitX=0.5;exitY=1;exitDx=0;exitDy=0;entryX=0.5;entryY=0;entryDx=0;entryDy=0;curved=1;" edge="1" parent="1" source="cXqnm6vmQuO6GC_OFDGB-20" target="cXqnm6vmQuO6GC_OFDGB-97">
          <mxGeometry relative="1" as="geometry" />
        </mxCell>
        <mxCell id="cXqnm6vmQuO6GC_OFDGB-20" value="FF" style="rounded=0;whiteSpace=wrap;html=1;fillColor=#ffff88;strokeColor=#36393d;" vertex="1" parent="1">
          <mxGeometry x="313" y="5180" width="23" height="30" as="geometry" />
        </mxCell>
        <mxCell id="cXqnm6vmQuO6GC_OFDGB-21" style="edgeStyle=orthogonalEdgeStyle;rounded=0;orthogonalLoop=1;jettySize=auto;html=1;exitX=0.5;exitY=1;exitDx=0;exitDy=0;entryX=0.5;entryY=0;entryDx=0;entryDy=0;curved=1;" edge="1" parent="1" source="cXqnm6vmQuO6GC_OFDGB-22" target="cXqnm6vmQuO6GC_OFDGB-98">
          <mxGeometry relative="1" as="geometry" />
        </mxCell>
        <mxCell id="cXqnm6vmQuO6GC_OFDGB-22" value="FF" style="rounded=0;whiteSpace=wrap;html=1;fillColor=#ffff88;strokeColor=#36393d;" vertex="1" parent="1">
          <mxGeometry x="336" y="5180" width="23" height="30" as="geometry" />
        </mxCell>
        <mxCell id="cXqnm6vmQuO6GC_OFDGB-23" style="edgeStyle=orthogonalEdgeStyle;rounded=0;orthogonalLoop=1;jettySize=auto;html=1;exitX=0.5;exitY=1;exitDx=0;exitDy=0;entryX=0.5;entryY=0;entryDx=0;entryDy=0;curved=1;" edge="1" parent="1" source="cXqnm6vmQuO6GC_OFDGB-24" target="cXqnm6vmQuO6GC_OFDGB-99">
          <mxGeometry relative="1" as="geometry" />
        </mxCell>
        <mxCell id="cXqnm6vmQuO6GC_OFDGB-24" value="FF" style="rounded=0;whiteSpace=wrap;html=1;fillColor=#ffff88;strokeColor=#36393d;" vertex="1" parent="1">
          <mxGeometry x="359" y="5180" width="23" height="30" as="geometry" />
        </mxCell>
        <mxCell id="cXqnm6vmQuO6GC_OFDGB-25" style="edgeStyle=orthogonalEdgeStyle;rounded=0;orthogonalLoop=1;jettySize=auto;html=1;exitX=0.5;exitY=1;exitDx=0;exitDy=0;entryX=0.5;entryY=0;entryDx=0;entryDy=0;curved=1;" edge="1" parent="1" source="cXqnm6vmQuO6GC_OFDGB-26" target="cXqnm6vmQuO6GC_OFDGB-100">
          <mxGeometry relative="1" as="geometry" />
        </mxCell>
        <mxCell id="cXqnm6vmQuO6GC_OFDGB-26" value="FF" style="rounded=0;whiteSpace=wrap;html=1;fillColor=#ffff88;strokeColor=#36393d;" vertex="1" parent="1">
          <mxGeometry x="382" y="5180" width="23" height="30" as="geometry" />
        </mxCell>
        <mxCell id="cXqnm6vmQuO6GC_OFDGB-27" style="edgeStyle=orthogonalEdgeStyle;rounded=0;orthogonalLoop=1;jettySize=auto;html=1;exitX=0.5;exitY=1;exitDx=0;exitDy=0;entryX=0.5;entryY=0;entryDx=0;entryDy=0;curved=1;" edge="1" parent="1" source="cXqnm6vmQuO6GC_OFDGB-28" target="cXqnm6vmQuO6GC_OFDGB-101">
          <mxGeometry relative="1" as="geometry" />
        </mxCell>
        <mxCell id="cXqnm6vmQuO6GC_OFDGB-28" value="FF" style="rounded=0;whiteSpace=wrap;html=1;fillColor=#ffff88;strokeColor=#36393d;" vertex="1" parent="1">
          <mxGeometry x="405" y="5180" width="23" height="30" as="geometry" />
        </mxCell>
        <mxCell id="cXqnm6vmQuO6GC_OFDGB-29" style="edgeStyle=orthogonalEdgeStyle;rounded=0;orthogonalLoop=1;jettySize=auto;html=1;exitX=0.5;exitY=1;exitDx=0;exitDy=0;entryX=0.5;entryY=0;entryDx=0;entryDy=0;curved=1;" edge="1" parent="1" source="cXqnm6vmQuO6GC_OFDGB-30" target="cXqnm6vmQuO6GC_OFDGB-102">
          <mxGeometry relative="1" as="geometry" />
        </mxCell>
        <mxCell id="cXqnm6vmQuO6GC_OFDGB-30" value="FF" style="rounded=0;whiteSpace=wrap;html=1;fillColor=#ffff88;strokeColor=#36393d;" vertex="1" parent="1">
          <mxGeometry x="428" y="5180" width="23" height="30" as="geometry" />
        </mxCell>
        <mxCell id="cXqnm6vmQuO6GC_OFDGB-31" style="edgeStyle=orthogonalEdgeStyle;rounded=0;orthogonalLoop=1;jettySize=auto;html=1;exitX=0.5;exitY=1;exitDx=0;exitDy=0;entryX=0.5;entryY=0;entryDx=0;entryDy=0;curved=1;" edge="1" parent="1" source="cXqnm6vmQuO6GC_OFDGB-32" target="cXqnm6vmQuO6GC_OFDGB-103">
          <mxGeometry relative="1" as="geometry" />
        </mxCell>
        <mxCell id="cXqnm6vmQuO6GC_OFDGB-32" value="FF" style="rounded=0;whiteSpace=wrap;html=1;fillColor=#ffff88;strokeColor=#36393d;" vertex="1" parent="1">
          <mxGeometry x="451.75" y="5180" width="23" height="30" as="geometry" />
        </mxCell>
        <mxCell id="cXqnm6vmQuO6GC_OFDGB-33" style="edgeStyle=orthogonalEdgeStyle;rounded=0;orthogonalLoop=1;jettySize=auto;html=1;exitX=0.5;exitY=1;exitDx=0;exitDy=0;entryX=0.5;entryY=0;entryDx=0;entryDy=0;curved=1;" edge="1" parent="1" source="cXqnm6vmQuO6GC_OFDGB-34" target="cXqnm6vmQuO6GC_OFDGB-104">
          <mxGeometry relative="1" as="geometry" />
        </mxCell>
        <mxCell id="cXqnm6vmQuO6GC_OFDGB-34" value="FF" style="rounded=0;whiteSpace=wrap;html=1;fillColor=#ffff88;strokeColor=#36393d;" vertex="1" parent="1">
          <mxGeometry x="474.75" y="5180" width="23" height="30" as="geometry" />
        </mxCell>
        <mxCell id="cXqnm6vmQuO6GC_OFDGB-35" value="FF" style="rounded=0;whiteSpace=wrap;html=1;fillColor=#cdeb8b;strokeColor=#36393d;" vertex="1" parent="1">
          <mxGeometry x="497.75" y="5180" width="23" height="30" as="geometry" />
        </mxCell>
        <mxCell id="cXqnm6vmQuO6GC_OFDGB-36" value="FF" style="rounded=0;whiteSpace=wrap;html=1;fillColor=#cdeb8b;strokeColor=#36393d;" vertex="1" parent="1">
          <mxGeometry x="520.75" y="5180" width="23" height="30" as="geometry" />
        </mxCell>
        <mxCell id="cXqnm6vmQuO6GC_OFDGB-37" value="FF" style="rounded=0;whiteSpace=wrap;html=1;fillColor=#cdeb8b;strokeColor=#36393d;" vertex="1" parent="1">
          <mxGeometry x="543.75" y="5180" width="23" height="30" as="geometry" />
        </mxCell>
        <mxCell id="cXqnm6vmQuO6GC_OFDGB-38" value="FF" style="rounded=0;whiteSpace=wrap;html=1;fillColor=#cdeb8b;strokeColor=#36393d;" vertex="1" parent="1">
          <mxGeometry x="566.75" y="5180" width="23" height="30" as="geometry" />
        </mxCell>
        <mxCell id="cXqnm6vmQuO6GC_OFDGB-39" value="FF" style="rounded=0;whiteSpace=wrap;html=1;fillColor=#cdeb8b;strokeColor=#36393d;" vertex="1" parent="1">
          <mxGeometry x="589.75" y="5180" width="23" height="30" as="geometry" />
        </mxCell>
        <mxCell id="cXqnm6vmQuO6GC_OFDGB-40" value="FF" style="rounded=0;whiteSpace=wrap;html=1;fillColor=#cdeb8b;strokeColor=#36393d;" vertex="1" parent="1">
          <mxGeometry x="612.75" y="5180" width="23" height="30" as="geometry" />
        </mxCell>
        <mxCell id="cXqnm6vmQuO6GC_OFDGB-41" value="FF" style="rounded=0;whiteSpace=wrap;html=1;fillColor=#cdeb8b;strokeColor=#36393d;" vertex="1" parent="1">
          <mxGeometry x="635.75" y="5180" width="23" height="30" as="geometry" />
        </mxCell>
        <mxCell id="cXqnm6vmQuO6GC_OFDGB-42" value="FF" style="rounded=0;whiteSpace=wrap;html=1;fillColor=#cdeb8b;strokeColor=#36393d;" vertex="1" parent="1">
          <mxGeometry x="658.75" y="5180" width="23" height="30" as="geometry" />
        </mxCell>
        <mxCell id="cXqnm6vmQuO6GC_OFDGB-43" value="FF" style="rounded=0;whiteSpace=wrap;html=1;fillColor=#cdeb8b;strokeColor=#36393d;" vertex="1" parent="1">
          <mxGeometry x="681.75" y="5180" width="23" height="30" as="geometry" />
        </mxCell>
        <mxCell id="cXqnm6vmQuO6GC_OFDGB-44" value="FF" style="rounded=0;whiteSpace=wrap;html=1;fillColor=#cdeb8b;strokeColor=#36393d;" vertex="1" parent="1">
          <mxGeometry x="704.75" y="5180" width="23" height="30" as="geometry" />
        </mxCell>
        <mxCell id="cXqnm6vmQuO6GC_OFDGB-45" value="FF" style="rounded=0;whiteSpace=wrap;html=1;fillColor=#cdeb8b;strokeColor=#36393d;" vertex="1" parent="1">
          <mxGeometry x="727.75" y="5180" width="23" height="30" as="geometry" />
        </mxCell>
        <mxCell id="cXqnm6vmQuO6GC_OFDGB-46" value="FF" style="rounded=0;whiteSpace=wrap;html=1;fillColor=#cdeb8b;strokeColor=#36393d;" vertex="1" parent="1">
          <mxGeometry x="750.75" y="5180" width="23" height="30" as="geometry" />
        </mxCell>
        <mxCell id="cXqnm6vmQuO6GC_OFDGB-47" value="FF" style="rounded=0;whiteSpace=wrap;html=1;fillColor=#cdeb8b;strokeColor=#36393d;" vertex="1" parent="1">
          <mxGeometry x="773.75" y="5180" width="23" height="30" as="geometry" />
        </mxCell>
        <mxCell id="cXqnm6vmQuO6GC_OFDGB-48" value="FF" style="rounded=0;whiteSpace=wrap;html=1;fillColor=#cdeb8b;strokeColor=#36393d;" vertex="1" parent="1">
          <mxGeometry x="796.75" y="5180" width="23" height="30" as="geometry" />
        </mxCell>
        <mxCell id="cXqnm6vmQuO6GC_OFDGB-49" value="" style="endArrow=none;dashed=1;html=1;rounded=0;" edge="1" parent="1">
          <mxGeometry width="50" height="50" relative="1" as="geometry">
            <mxPoint x="452" y="5240" as="sourcePoint" />
            <mxPoint x="451.75" y="5150" as="targetPoint" />
          </mxGeometry>
        </mxCell>
        <mxCell id="cXqnm6vmQuO6GC_OFDGB-50" value="FF" style="rounded=0;whiteSpace=wrap;html=1;fillColor=#cdeb8b;strokeColor=#36393d;" vertex="1" parent="1">
          <mxGeometry x="60" y="5180" width="23" height="30" as="geometry" />
        </mxCell>
        <mxCell id="cXqnm6vmQuO6GC_OFDGB-51" value="" style="endArrow=none;dashed=1;html=1;rounded=0;" edge="1" parent="1">
          <mxGeometry width="50" height="50" relative="1" as="geometry">
            <mxPoint x="83.25" y="5240" as="sourcePoint" />
            <mxPoint x="83" y="5150" as="targetPoint" />
          </mxGeometry>
        </mxCell>
        <mxCell id="cXqnm6vmQuO6GC_OFDGB-52" value="FF" style="rounded=0;whiteSpace=wrap;html=1;fillColor=#cce5ff;strokeColor=#36393d;" vertex="1" parent="1">
          <mxGeometry x="82.13000000000001" y="5480" width="23" height="30" as="geometry" />
        </mxCell>
        <mxCell id="cXqnm6vmQuO6GC_OFDGB-53" value="FF" style="rounded=0;whiteSpace=wrap;html=1;fillColor=#cce5ff;strokeColor=#36393d;" vertex="1" parent="1">
          <mxGeometry x="105.13000000000001" y="5480" width="23" height="30" as="geometry" />
        </mxCell>
        <mxCell id="cXqnm6vmQuO6GC_OFDGB-54" value="FF" style="rounded=0;whiteSpace=wrap;html=1;fillColor=#cce5ff;strokeColor=#36393d;" vertex="1" parent="1">
          <mxGeometry x="128.13" y="5480" width="23" height="30" as="geometry" />
        </mxCell>
        <mxCell id="cXqnm6vmQuO6GC_OFDGB-55" value="FF" style="rounded=0;whiteSpace=wrap;html=1;fillColor=#cce5ff;strokeColor=#36393d;" vertex="1" parent="1">
          <mxGeometry x="151.13" y="5480" width="23" height="30" as="geometry" />
        </mxCell>
        <mxCell id="cXqnm6vmQuO6GC_OFDGB-56" value="FF" style="rounded=0;whiteSpace=wrap;html=1;fillColor=#cce5ff;strokeColor=#36393d;" vertex="1" parent="1">
          <mxGeometry x="174.13" y="5480" width="23" height="30" as="geometry" />
        </mxCell>
        <mxCell id="cXqnm6vmQuO6GC_OFDGB-57" value="FF" style="rounded=0;whiteSpace=wrap;html=1;fillColor=#cce5ff;strokeColor=#36393d;" vertex="1" parent="1">
          <mxGeometry x="197.13" y="5480" width="23" height="30" as="geometry" />
        </mxCell>
        <mxCell id="cXqnm6vmQuO6GC_OFDGB-58" value="FF" style="rounded=0;whiteSpace=wrap;html=1;fillColor=#cce5ff;strokeColor=#36393d;" vertex="1" parent="1">
          <mxGeometry x="220.13" y="5480" width="23" height="30" as="geometry" />
        </mxCell>
        <mxCell id="cXqnm6vmQuO6GC_OFDGB-59" value="FF" style="rounded=0;whiteSpace=wrap;html=1;fillColor=#cce5ff;strokeColor=#36393d;" vertex="1" parent="1">
          <mxGeometry x="243.13" y="5480" width="23" height="30" as="geometry" />
        </mxCell>
        <mxCell id="cXqnm6vmQuO6GC_OFDGB-60" value="FF" style="rounded=0;whiteSpace=wrap;html=1;fillColor=#cce5ff;strokeColor=#36393d;" vertex="1" parent="1">
          <mxGeometry x="266.13" y="5480" width="23" height="30" as="geometry" />
        </mxCell>
        <mxCell id="cXqnm6vmQuO6GC_OFDGB-61" value="FF" style="rounded=0;whiteSpace=wrap;html=1;fillColor=#cce5ff;strokeColor=#36393d;" vertex="1" parent="1">
          <mxGeometry x="289.13" y="5480" width="23" height="30" as="geometry" />
        </mxCell>
        <mxCell id="cXqnm6vmQuO6GC_OFDGB-62" value="FF" style="rounded=0;whiteSpace=wrap;html=1;fillColor=#cce5ff;strokeColor=#36393d;" vertex="1" parent="1">
          <mxGeometry x="312.13" y="5480" width="23" height="30" as="geometry" />
        </mxCell>
        <mxCell id="cXqnm6vmQuO6GC_OFDGB-63" value="FF" style="rounded=0;whiteSpace=wrap;html=1;fillColor=#cce5ff;strokeColor=#36393d;" vertex="1" parent="1">
          <mxGeometry x="335.13" y="5480" width="23" height="30" as="geometry" />
        </mxCell>
        <mxCell id="cXqnm6vmQuO6GC_OFDGB-64" value="FF" style="rounded=0;whiteSpace=wrap;html=1;fillColor=#cce5ff;strokeColor=#36393d;" vertex="1" parent="1">
          <mxGeometry x="358.13" y="5480" width="23" height="30" as="geometry" />
        </mxCell>
        <mxCell id="cXqnm6vmQuO6GC_OFDGB-65" value="FF" style="rounded=0;whiteSpace=wrap;html=1;fillColor=#cce5ff;strokeColor=#36393d;" vertex="1" parent="1">
          <mxGeometry x="381.13" y="5480" width="23" height="30" as="geometry" />
        </mxCell>
        <mxCell id="cXqnm6vmQuO6GC_OFDGB-66" value="FF" style="rounded=0;whiteSpace=wrap;html=1;fillColor=#cce5ff;strokeColor=#36393d;" vertex="1" parent="1">
          <mxGeometry x="404.13" y="5480" width="23" height="30" as="geometry" />
        </mxCell>
        <mxCell id="cXqnm6vmQuO6GC_OFDGB-67" value="FF" style="rounded=0;whiteSpace=wrap;html=1;fillColor=#cce5ff;strokeColor=#36393d;" vertex="1" parent="1">
          <mxGeometry x="427.13" y="5480" width="23" height="30" as="geometry" />
        </mxCell>
        <mxCell id="cXqnm6vmQuO6GC_OFDGB-68" value="FF" style="rounded=0;whiteSpace=wrap;html=1;fillColor=#cce5ff;strokeColor=#36393d;" vertex="1" parent="1">
          <mxGeometry x="450.88" y="5480" width="23" height="30" as="geometry" />
        </mxCell>
        <mxCell id="cXqnm6vmQuO6GC_OFDGB-69" value="FF" style="rounded=0;whiteSpace=wrap;html=1;fillColor=#cce5ff;strokeColor=#36393d;" vertex="1" parent="1">
          <mxGeometry x="473.88" y="5480" width="23" height="30" as="geometry" />
        </mxCell>
        <mxCell id="cXqnm6vmQuO6GC_OFDGB-70" value="FF" style="rounded=0;whiteSpace=wrap;html=1;fillColor=#cce5ff;strokeColor=#36393d;" vertex="1" parent="1">
          <mxGeometry x="496.88" y="5480" width="23" height="30" as="geometry" />
        </mxCell>
        <mxCell id="cXqnm6vmQuO6GC_OFDGB-71" value="FF" style="rounded=0;whiteSpace=wrap;html=1;fillColor=#cce5ff;strokeColor=#36393d;" vertex="1" parent="1">
          <mxGeometry x="519.88" y="5480" width="23" height="30" as="geometry" />
        </mxCell>
        <mxCell id="cXqnm6vmQuO6GC_OFDGB-72" value="FF" style="rounded=0;whiteSpace=wrap;html=1;fillColor=#cce5ff;strokeColor=#36393d;" vertex="1" parent="1">
          <mxGeometry x="542.88" y="5480" width="23" height="30" as="geometry" />
        </mxCell>
        <mxCell id="cXqnm6vmQuO6GC_OFDGB-73" value="FF" style="rounded=0;whiteSpace=wrap;html=1;fillColor=#cce5ff;strokeColor=#36393d;" vertex="1" parent="1">
          <mxGeometry x="565.88" y="5480" width="23" height="30" as="geometry" />
        </mxCell>
        <mxCell id="cXqnm6vmQuO6GC_OFDGB-74" value="FF" style="rounded=0;whiteSpace=wrap;html=1;fillColor=#cce5ff;strokeColor=#36393d;" vertex="1" parent="1">
          <mxGeometry x="588.88" y="5480" width="23" height="30" as="geometry" />
        </mxCell>
        <mxCell id="cXqnm6vmQuO6GC_OFDGB-75" value="FF" style="rounded=0;whiteSpace=wrap;html=1;fillColor=#cce5ff;strokeColor=#36393d;" vertex="1" parent="1">
          <mxGeometry x="611.88" y="5480" width="23" height="30" as="geometry" />
        </mxCell>
        <mxCell id="cXqnm6vmQuO6GC_OFDGB-76" value="FF" style="rounded=0;whiteSpace=wrap;html=1;fillColor=#cce5ff;strokeColor=#36393d;" vertex="1" parent="1">
          <mxGeometry x="634.88" y="5480" width="23" height="30" as="geometry" />
        </mxCell>
        <mxCell id="cXqnm6vmQuO6GC_OFDGB-77" value="FF" style="rounded=0;whiteSpace=wrap;html=1;fillColor=#cce5ff;strokeColor=#36393d;" vertex="1" parent="1">
          <mxGeometry x="657.88" y="5480" width="23" height="30" as="geometry" />
        </mxCell>
        <mxCell id="cXqnm6vmQuO6GC_OFDGB-78" value="FF" style="rounded=0;whiteSpace=wrap;html=1;fillColor=#cce5ff;strokeColor=#36393d;" vertex="1" parent="1">
          <mxGeometry x="680.88" y="5480" width="23" height="30" as="geometry" />
        </mxCell>
        <mxCell id="cXqnm6vmQuO6GC_OFDGB-79" value="FF" style="rounded=0;whiteSpace=wrap;html=1;fillColor=#cce5ff;strokeColor=#36393d;" vertex="1" parent="1">
          <mxGeometry x="703.88" y="5480" width="23" height="30" as="geometry" />
        </mxCell>
        <mxCell id="cXqnm6vmQuO6GC_OFDGB-80" value="FF" style="rounded=0;whiteSpace=wrap;html=1;fillColor=#cce5ff;strokeColor=#36393d;" vertex="1" parent="1">
          <mxGeometry x="726.88" y="5480" width="23" height="30" as="geometry" />
        </mxCell>
        <mxCell id="cXqnm6vmQuO6GC_OFDGB-81" value="FF" style="rounded=0;whiteSpace=wrap;html=1;fillColor=#cce5ff;strokeColor=#36393d;" vertex="1" parent="1">
          <mxGeometry x="749.88" y="5480" width="23" height="30" as="geometry" />
        </mxCell>
        <mxCell id="cXqnm6vmQuO6GC_OFDGB-82" value="FF" style="rounded=0;whiteSpace=wrap;html=1;fillColor=#cce5ff;strokeColor=#36393d;" vertex="1" parent="1">
          <mxGeometry x="772.13" y="5480" width="23.75" height="30" as="geometry" />
        </mxCell>
        <mxCell id="cXqnm6vmQuO6GC_OFDGB-83" value="FF" style="rounded=0;whiteSpace=wrap;html=1;fillColor=#cce5ff;strokeColor=#36393d;" vertex="1" parent="1">
          <mxGeometry x="795.88" y="5480" width="23" height="30" as="geometry" />
        </mxCell>
        <mxCell id="cXqnm6vmQuO6GC_OFDGB-84" value="" style="endArrow=none;dashed=1;html=1;rounded=0;fillColor=#cce5ff;strokeColor=#36393d;" edge="1" parent="1">
          <mxGeometry width="50" height="50" relative="1" as="geometry">
            <mxPoint x="451.13" y="5540" as="sourcePoint" />
            <mxPoint x="450.88" y="5450" as="targetPoint" />
          </mxGeometry>
        </mxCell>
        <mxCell id="cXqnm6vmQuO6GC_OFDGB-85" value="FF" style="rounded=0;whiteSpace=wrap;html=1;fillColor=#cce5ff;strokeColor=#36393d;" vertex="1" parent="1">
          <mxGeometry x="59.129999999999995" y="5480" width="23" height="30" as="geometry" />
        </mxCell>
        <mxCell id="cXqnm6vmQuO6GC_OFDGB-86" value="" style="endArrow=none;dashed=1;html=1;rounded=0;fillColor=#cce5ff;strokeColor=#36393d;" edge="1" parent="1">
          <mxGeometry width="50" height="50" relative="1" as="geometry">
            <mxPoint x="82.38000000000001" y="5540" as="sourcePoint" />
            <mxPoint x="82.13000000000001" y="5450" as="targetPoint" />
          </mxGeometry>
        </mxCell>
        <mxCell id="cXqnm6vmQuO6GC_OFDGB-87" value="FF" style="rounded=0;whiteSpace=wrap;html=1;fillColor=#cce5ff;strokeColor=#36393d;" vertex="1" parent="1">
          <mxGeometry x="36.129999999999995" y="5480" width="23" height="30" as="geometry" />
        </mxCell>
        <mxCell id="cXqnm6vmQuO6GC_OFDGB-88" value="FF" style="rounded=0;whiteSpace=wrap;html=1;fillColor=#cce5ff;strokeColor=#36393d;" vertex="1" parent="1">
          <mxGeometry x="13.13" y="5480" width="23" height="30" as="geometry" />
        </mxCell>
        <mxCell id="cXqnm6vmQuO6GC_OFDGB-89" value="1d" style="rounded=0;whiteSpace=wrap;html=1;fillColor=#ffcc99;strokeColor=#36393d;" vertex="1" parent="1">
          <mxGeometry x="242.38" y="5290" width="23" height="30" as="geometry" />
        </mxCell>
        <mxCell id="cXqnm6vmQuO6GC_OFDGB-90" value="1c" style="rounded=0;whiteSpace=wrap;html=1;fillColor=#ffcc99;strokeColor=#36393d;" vertex="1" parent="1">
          <mxGeometry x="265.38" y="5290" width="23" height="30" as="geometry" />
        </mxCell>
        <mxCell id="cXqnm6vmQuO6GC_OFDGB-91" value="1b" style="rounded=0;whiteSpace=wrap;html=1;fillColor=#ffcc99;strokeColor=#36393d;" vertex="1" parent="1">
          <mxGeometry x="288.38" y="5290" width="23" height="30" as="geometry" />
        </mxCell>
        <mxCell id="cXqnm6vmQuO6GC_OFDGB-92" value="1a" style="rounded=0;whiteSpace=wrap;html=1;fillColor=#ffcc99;strokeColor=#36393d;" vertex="1" parent="1">
          <mxGeometry x="311.38" y="5290" width="23" height="30" as="geometry" />
        </mxCell>
        <mxCell id="cXqnm6vmQuO6GC_OFDGB-93" value="19" style="rounded=0;whiteSpace=wrap;html=1;fillColor=#ffcc99;strokeColor=#36393d;" vertex="1" parent="1">
          <mxGeometry x="334.38" y="5290" width="23" height="30" as="geometry" />
        </mxCell>
        <mxCell id="cXqnm6vmQuO6GC_OFDGB-94" value="18" style="rounded=0;whiteSpace=wrap;html=1;fillColor=#ffcc99;strokeColor=#36393d;" vertex="1" parent="1">
          <mxGeometry x="357.38" y="5290" width="23" height="30" as="geometry" />
        </mxCell>
        <mxCell id="cXqnm6vmQuO6GC_OFDGB-95" value="17" style="rounded=0;whiteSpace=wrap;html=1;fillColor=#ffcc99;strokeColor=#36393d;" vertex="1" parent="1">
          <mxGeometry x="380.38" y="5290" width="23" height="30" as="geometry" />
        </mxCell>
        <mxCell id="cXqnm6vmQuO6GC_OFDGB-96" value="16" style="rounded=0;whiteSpace=wrap;html=1;fillColor=#ffcc99;strokeColor=#36393d;" vertex="1" parent="1">
          <mxGeometry x="403.38" y="5290" width="23" height="30" as="geometry" />
        </mxCell>
        <mxCell id="cXqnm6vmQuO6GC_OFDGB-97" value="15" style="rounded=0;whiteSpace=wrap;html=1;fillColor=#ffcc99;strokeColor=#36393d;" vertex="1" parent="1">
          <mxGeometry x="426.38" y="5290" width="23" height="30" as="geometry" />
        </mxCell>
        <mxCell id="cXqnm6vmQuO6GC_OFDGB-98" value="14" style="rounded=0;whiteSpace=wrap;html=1;fillColor=#ffcc99;strokeColor=#36393d;" vertex="1" parent="1">
          <mxGeometry x="449.38" y="5290" width="23" height="30" as="geometry" />
        </mxCell>
        <mxCell id="cXqnm6vmQuO6GC_OFDGB-99" value="13" style="rounded=0;whiteSpace=wrap;html=1;fillColor=#ffcc99;strokeColor=#36393d;" vertex="1" parent="1">
          <mxGeometry x="472.38" y="5290" width="23" height="30" as="geometry" />
        </mxCell>
        <mxCell id="cXqnm6vmQuO6GC_OFDGB-100" value="12" style="rounded=0;whiteSpace=wrap;html=1;fillColor=#ffcc99;strokeColor=#36393d;" vertex="1" parent="1">
          <mxGeometry x="495.38" y="5290" width="23" height="30" as="geometry" />
        </mxCell>
        <mxCell id="cXqnm6vmQuO6GC_OFDGB-101" value="11" style="rounded=0;whiteSpace=wrap;html=1;fillColor=#ffcc99;strokeColor=#36393d;" vertex="1" parent="1">
          <mxGeometry x="518.38" y="5290" width="23" height="30" as="geometry" />
        </mxCell>
        <mxCell id="cXqnm6vmQuO6GC_OFDGB-102" value="10" style="rounded=0;whiteSpace=wrap;html=1;fillColor=#ffcc99;strokeColor=#36393d;" vertex="1" parent="1">
          <mxGeometry x="541.38" y="5290" width="23" height="30" as="geometry" />
        </mxCell>
        <mxCell id="cXqnm6vmQuO6GC_OFDGB-103" value="0f" style="rounded=0;whiteSpace=wrap;html=1;fillColor=#ffcc99;strokeColor=#36393d;" vertex="1" parent="1">
          <mxGeometry x="564.38" y="5290" width="23" height="30" as="geometry" />
        </mxCell>
        <mxCell id="cXqnm6vmQuO6GC_OFDGB-104" value="0e" style="rounded=0;whiteSpace=wrap;html=1;fillColor=#ffcc99;strokeColor=#36393d;" vertex="1" parent="1">
          <mxGeometry x="587.38" y="5290" width="23" height="30" as="geometry" />
        </mxCell>
        <mxCell id="cXqnm6vmQuO6GC_OFDGB-105" value="Shuf Mask" style="text;html=1;align=center;verticalAlign=middle;resizable=0;points=[];autosize=1;strokeColor=none;fillColor=none;fontSize=14;" vertex="1" parent="1">
          <mxGeometry x="143.13" y="5290" width="90" height="30" as="geometry" />
        </mxCell>
        <mxCell id="cXqnm6vmQuO6GC_OFDGB-106" value="" style="shape=flexArrow;endArrow=classic;html=1;rounded=0;" edge="1" parent="1">
          <mxGeometry width="50" height="50" relative="1" as="geometry">
            <mxPoint x="410" y="5340" as="sourcePoint" />
            <mxPoint x="410" y="5380" as="targetPoint" />
          </mxGeometry>
        </mxCell>
        <mxCell id="cXqnm6vmQuO6GC_OFDGB-107" value="VSHUF" style="text;html=1;align=center;verticalAlign=middle;resizable=0;points=[];autosize=1;strokeColor=none;fillColor=none;fontSize=14;" vertex="1" parent="1">
          <mxGeometry x="322.75" y="5340" width="70" height="30" as="geometry" />
        </mxCell>
        <mxCell id="cXqnm6vmQuO6GC_OFDGB-108" value="FF" style="rounded=0;whiteSpace=wrap;html=1;fillColor=#ffff88;strokeColor=#36393d;" vertex="1" parent="1">
          <mxGeometry x="240" y="5390" width="23" height="30" as="geometry" />
        </mxCell>
        <mxCell id="cXqnm6vmQuO6GC_OFDGB-109" value="FF" style="rounded=0;whiteSpace=wrap;html=1;fillColor=#ffff88;strokeColor=#36393d;" vertex="1" parent="1">
          <mxGeometry x="263" y="5390" width="23" height="30" as="geometry" />
        </mxCell>
        <mxCell id="cXqnm6vmQuO6GC_OFDGB-110" value="FF" style="rounded=0;whiteSpace=wrap;html=1;fillColor=#ffff88;strokeColor=#36393d;" vertex="1" parent="1">
          <mxGeometry x="286" y="5390" width="23" height="30" as="geometry" />
        </mxCell>
        <mxCell id="cXqnm6vmQuO6GC_OFDGB-111" value="FF" style="rounded=0;whiteSpace=wrap;html=1;fillColor=#ffff88;strokeColor=#36393d;" vertex="1" parent="1">
          <mxGeometry x="309" y="5390" width="23" height="30" as="geometry" />
        </mxCell>
        <mxCell id="cXqnm6vmQuO6GC_OFDGB-112" value="FF" style="rounded=0;whiteSpace=wrap;html=1;fillColor=#ffff88;strokeColor=#36393d;" vertex="1" parent="1">
          <mxGeometry x="332" y="5390" width="23" height="30" as="geometry" />
        </mxCell>
        <mxCell id="cXqnm6vmQuO6GC_OFDGB-113" value="FF" style="rounded=0;whiteSpace=wrap;html=1;fillColor=#ffff88;strokeColor=#36393d;" vertex="1" parent="1">
          <mxGeometry x="355" y="5390" width="23" height="30" as="geometry" />
        </mxCell>
        <mxCell id="cXqnm6vmQuO6GC_OFDGB-114" value="FF" style="rounded=0;whiteSpace=wrap;html=1;fillColor=#ffff88;strokeColor=#36393d;" vertex="1" parent="1">
          <mxGeometry x="378" y="5390" width="23" height="30" as="geometry" />
        </mxCell>
        <mxCell id="cXqnm6vmQuO6GC_OFDGB-115" value="FF" style="rounded=0;whiteSpace=wrap;html=1;fillColor=#ffff88;strokeColor=#36393d;" vertex="1" parent="1">
          <mxGeometry x="401" y="5390" width="23" height="30" as="geometry" />
        </mxCell>
        <mxCell id="cXqnm6vmQuO6GC_OFDGB-116" value="FF" style="rounded=0;whiteSpace=wrap;html=1;fillColor=#ffff88;strokeColor=#36393d;" vertex="1" parent="1">
          <mxGeometry x="424" y="5390" width="23" height="30" as="geometry" />
        </mxCell>
        <mxCell id="cXqnm6vmQuO6GC_OFDGB-117" value="FF" style="rounded=0;whiteSpace=wrap;html=1;fillColor=#ffff88;strokeColor=#36393d;" vertex="1" parent="1">
          <mxGeometry x="447" y="5390" width="23" height="30" as="geometry" />
        </mxCell>
        <mxCell id="cXqnm6vmQuO6GC_OFDGB-118" value="FF" style="rounded=0;whiteSpace=wrap;html=1;fillColor=#ffff88;strokeColor=#36393d;" vertex="1" parent="1">
          <mxGeometry x="470" y="5390" width="23" height="30" as="geometry" />
        </mxCell>
        <mxCell id="cXqnm6vmQuO6GC_OFDGB-119" value="FF" style="rounded=0;whiteSpace=wrap;html=1;fillColor=#ffff88;strokeColor=#36393d;" vertex="1" parent="1">
          <mxGeometry x="493" y="5390" width="23" height="30" as="geometry" />
        </mxCell>
        <mxCell id="cXqnm6vmQuO6GC_OFDGB-120" value="FF" style="rounded=0;whiteSpace=wrap;html=1;fillColor=#ffff88;strokeColor=#36393d;" vertex="1" parent="1">
          <mxGeometry x="516" y="5390" width="23" height="30" as="geometry" />
        </mxCell>
        <mxCell id="cXqnm6vmQuO6GC_OFDGB-121" value="FF" style="rounded=0;whiteSpace=wrap;html=1;fillColor=#ffff88;strokeColor=#36393d;" vertex="1" parent="1">
          <mxGeometry x="539" y="5390" width="23" height="30" as="geometry" />
        </mxCell>
        <mxCell id="cXqnm6vmQuO6GC_OFDGB-122" value="FF" style="rounded=0;whiteSpace=wrap;html=1;fillColor=#ffff88;strokeColor=#36393d;" vertex="1" parent="1">
          <mxGeometry x="562.75" y="5390" width="23" height="30" as="geometry" />
        </mxCell>
        <mxCell id="cXqnm6vmQuO6GC_OFDGB-123" value="FF" style="rounded=0;whiteSpace=wrap;html=1;fillColor=#ffff88;strokeColor=#36393d;" vertex="1" parent="1">
          <mxGeometry x="585.75" y="5390" width="23" height="30" as="geometry" />
        </mxCell>
        <mxCell id="cXqnm6vmQuO6GC_OFDGB-124" value="" style="endArrow=none;dashed=1;html=1;dashPattern=1 3;strokeWidth=2;rounded=0;entryX=0;entryY=1;entryDx=0;entryDy=0;" edge="1" parent="1" target="cXqnm6vmQuO6GC_OFDGB-108">
          <mxGeometry width="50" height="50" relative="1" as="geometry">
            <mxPoint x="80" y="5480" as="sourcePoint" />
            <mxPoint x="140" y="5400" as="targetPoint" />
          </mxGeometry>
        </mxCell>
        <mxCell id="cXqnm6vmQuO6GC_OFDGB-125" value="" style="endArrow=none;dashed=1;html=1;dashPattern=1 3;strokeWidth=2;rounded=0;entryX=1;entryY=1;entryDx=0;entryDy=0;exitX=1;exitY=0;exitDx=0;exitDy=0;" edge="1" parent="1" source="cXqnm6vmQuO6GC_OFDGB-67" target="cXqnm6vmQuO6GC_OFDGB-123">
          <mxGeometry width="50" height="50" relative="1" as="geometry">
            <mxPoint x="90" y="5490" as="sourcePoint" />
            <mxPoint x="250" y="5430" as="targetPoint" />
          </mxGeometry>
        </mxCell>
      </root>
    </mxGraphModel>
  </diagram>
</mxfile>
